<?xml version="1.0" encoding="utf-8"?>
<!-- Generator: AUTODESK SketchBook Designer 2011. SVG Version: 6.00 Build 0)  -->
<!DOCTYPE svg PUBLIC "-//W3C//DTD SVG 1.1//EN" "http://www.w3.org/Graphics/SVG/1.1/DTD/svg11.dtd">
<svg version="1.1" id="Layer_1" xmlns="http://www.w3.org/2000/svg" xmlns:xlink="http://www.w3.org/1999/xlink" x="0px" y="0px"
	 width="64.897px" height="120.407px" viewBox="0 0 64.897 120.407" enable-background="new 0 0 64.897 120.407"
	 xml:space="preserve">
<g>
	<g>
		<path fill="#3346B5" d="M62.404,117.765c-19.947,0-39.699,0-59.541,0c-0.059-0.688-0.1-1.397-0.184-2.102
			c-0.085-0.708,0.123-1.245,0.768-1.595c0.791-0.43,0.978-1.092,0.977-1.985C4.397,84.489,4.4,56.895,4.398,29.301
			c0-0.352,0-0.704,0-1.123c-0.589-0.07-1.088-0.129-1.661-0.197c0-2.405,0-4.786,0-7.257c0.491-0.107,1.023-0.223,1.663-0.362
			c0-1.099,0-2.202,0-3.412c0.719-0.076,1.338-0.141,2.089-0.22c0-0.933,0-1.871,0-2.905c7.394-1.372,14.679-2.724,22.026-4.088
			c0.123-0.554,0.241-1.088,0.372-1.676c0.329-0.073,0.669-0.149,1.03-0.229c0.044-0.097,0.132-0.203,0.134-0.31
			c0.016-1.079,0.053-2.16,0.01-3.237C30.035,3.7,30.278,3.313,30.778,3.2c0.799-0.181,1.646-0.416,2.433-0.316
			c1.444,0.183,1.674,0.583,1.67,2.057c-0.002,0.914,0,1.828,0,2.784c0.443,0.129,0.813,0.238,1.189,0.348
			c0.057,0.117,0.141,0.217,0.153,0.326c0.142,1.263,0.138,1.272,1.326,1.495c6.317,1.186,12.635,2.364,18.95,3.558
			c0.616,0.116,1.215,0.322,1.899,0.508c0,0.925,0,1.793,0,2.758c0.704,0.069,1.321,0.129,2.046,0.199c0,1.126,0,2.225,0,3.376
			c0.664,0.145,1.237,0.27,1.87,0.408c0,2.394,0,4.774,0,7.144c-0.079,0.059-0.137,0.139-0.204,0.147
			c-1.607,0.206-1.608,0.204-1.608,1.894c-0.001,27.354,0.002,54.708-0.02,82.062c-0.001,0.838,0.129,1.495,0.925,1.871
			c0.839,0.396,1.116,1.039,1.01,1.945C62.346,116.386,62.404,117.024,62.404,117.765z M11.351,67.869c4.662,0,9.32,0,14.012,0
			c0-5.522,0-10.973,0-16.433c-4.69,0-9.302,0-14.012,0C11.351,56.94,11.351,62.36,11.351,67.869z M59.292,21.236
			c-17.933,0-35.742,0-53.566,0c0,2.063,0,4.042,0,6.007c17.891,0,35.708,0,53.566,0C59.292,25.216,59.292,23.266,59.292,21.236z
			 M32.007,30.326c0,27.286,0,54.502,0,81.749c0.401,0,0.739,0,1.129,0c0-27.273,0-54.488,0-81.749
			C32.734,30.326,32.399,30.326,32.007,30.326z M54.738,94.097c-5.383,0-10.641,0-15.947,0c0,6.116,0,12.165,0,18.252
			c5.356,0,10.64,0,15.947,0C54.738,106.232,54.738,100.208,54.738,94.097z M38.811,72.257c0,6.215,0,12.299,0,18.33
			c5.354,0,10.616,0,15.871,0c0-6.16,0-12.245,0-18.33C49.352,72.257,44.121,72.257,38.811,72.257z M38.782,68.813
			c5.349,0,10.634,0,15.899,0c0-6.158,0-12.241,0-18.3c-5.355,0-10.61,0-15.899,0C38.782,56.646,38.782,62.701,38.782,68.813z
			 M10.42,72.268c0,6.173,0,12.226,0,18.31c5.366,0,10.659,0,15.962,0c0-6.142,0-12.201,0-18.31
			C21.055,72.268,15.793,72.268,10.42,72.268z M10.409,94.076c0,6.161,0,12.185,0,18.276c5.357,0,10.651,0,15.957,0
			c0-6.143,0-12.2,0-18.276C21.019,94.076,15.752,94.076,10.409,94.076z M22.008,39.223c0,2.628,0,5.194,0,7.738
			c1.51,0,2.928,0,4.363,0c0-2.621,0-5.156,0-7.738C24.882,39.223,23.465,39.223,22.008,39.223z M20.639,39.228
			c-1.542,0-2.96,0-4.393,0c0,2.631,0,5.196,0,7.727c1.52,0,2.938,0,4.393,0C20.639,44.356,20.639,41.848,20.639,39.228z
			 M14.83,39.263c-1.534,0-2.98,0-4.391,0c0,2.638,0,5.174,0,7.705c1.511,0,2.928,0,4.391,0C14.83,44.381,14.83,41.872,14.83,39.263
			z M54.673,38.116c0-2.673,0-5.237,0-7.763c-1.515,0-2.927,0-4.328,0c0,2.642,0,5.181,0,7.763
			C51.809,38.116,53.195,38.116,54.673,38.116z M44.552,30.298c0,2.651,0,5.186,0,7.762c1.512,0,2.956,0,4.371,0
			c0-2.639,0-5.176,0-7.762C47.451,30.298,46.063,30.298,44.552,30.298z M38.768,30.293c0,2.635,0,5.174,0,7.766
			c1.508,0,2.955,0,4.388,0c0-2.642,0-5.181,0-7.766C41.682,30.293,40.293,30.293,38.768,30.293z M43.209,39.318
			c-1.566,0-3.013,0-4.468,0c0,2.617,0,5.119,0,7.675c1.523,0,2.974,0,4.468,0C43.209,44.407,43.209,41.897,43.209,39.318z
			 M20.613,37.979c0-2.613,0-5.146,0-7.671c-1.512,0-2.956,0-4.415,0c0,2.596,0,5.094,0,7.671
			C17.664,37.979,19.08,37.979,20.613,37.979z M26.402,30.31c-1.535,0-2.978,0-4.428,0c0,2.598,0,5.095,0,7.665
			c1.499,0,2.942,0,4.428,0C26.402,35.388,26.402,32.888,26.402,30.31z M44.561,39.347c0,2.588,0,5.115,0,7.683
			c1.493,0,2.909,0,4.378,0c0-2.585,0-5.112,0-7.683C47.456,39.347,46.04,39.347,44.561,39.347z M54.713,47.031
			c0-2.633,0-5.129,0-7.683c-1.474,0-2.888,0-4.374,0c0,2.575,0,5.101,0,7.683C51.813,47.031,53.228,47.031,54.713,47.031z
			 M10.407,37.94c1.516,0,2.934,0,4.391,0c0-2.601,0-5.128,0-7.66c-1.498,0-2.915,0-4.391,0
			C10.407,32.847,10.407,35.343,10.407,37.94z M33.81,7.431c0-1.121,0-2.244,0-3.43c-0.927,0-1.763,0-2.703,0
			c0,1.06-0.033,1.966,0.012,2.867c0.028,0.562,0.315,1.005,0.974,0.917C32.666,7.708,33.229,7.554,33.81,7.431z"/>
		<path fill="#3346B5" d="M6.751,26.31c0-1.4,0-2.743,0-4.164c17.169,0,34.301,0,51.533,0c0,1.342,0,2.713,0,4.164
			C41.152,26.31,24.024,26.31,6.751,26.31z"/>
		<path fill="#3346B5" d="M53.725,111.454c-4.703,0-9.289,0-13.937,0c0-5.48,0-10.903,0-16.421c4.663,0,9.271,0,13.937,0
			C53.725,100.493,53.725,105.916,53.725,111.454z"/>
		<path fill="#3346B5" d="M39.815,73.206c4.677,0,9.253,0,13.899,0c0,5.489,0,10.938,0,16.46c-4.633,0-9.24,0-13.899,0
			C39.815,84.178,39.815,78.756,39.815,73.206z"/>
		<path fill="#3346B5" d="M53.688,67.887c-4.626,0-9.175,0-13.847,0c0-5.478,0-10.926,0-16.446c4.59,0,9.171,0,13.847,0
			C53.688,56.873,53.688,62.322,53.688,67.887z"/>
		<path fill="#3346B5" d="M25.411,73.225c0,5.543,0,10.935,0,16.42c-4.644,0-9.256,0-13.961,0c0-5.448,0-10.898,0-16.42
			C16.09,73.225,20.703,73.225,25.411,73.225z"/>
		<path fill="#3346B5" d="M25.376,95.022c0,5.489,0,10.945,0,16.445c-4.655,0-9.242,0-13.924,0c0-5.463,0-10.912,0-16.445
			C16.081,95.022,20.695,95.022,25.376,95.022z"/>
	</g>
</g>
<g>
</g>
</svg>
